<svg id="Layer_1" data-name="Layer 1" xmlns="http://www.w3.org/2000/svg" viewBox="0 0 704.31 207.77"><defs><style>.cls-1{fill:#fff;}</style></defs><title>junction_logos_2018</title><path class="cls-1" d="M364.91,128.62a9.9,9.9,0,0,1-9.9,9.9H315.26a9.9,9.9,0,0,1-9.9-9.9V79.15a9.9,9.9,0,0,1,9.9-9.9H355a9.9,9.9,0,0,1,9.9,9.9v9.78H353.63V79.23H316.91v49.58h36.73v-10h11.28Z"/><path class="cls-1" d="M475.28,138.52H464V69.26h11.28Z"/><path class="cls-1" d="M550.12,138.52h-39.5a9.9,9.9,0,0,1-9.9-9.9V79.15a9.9,9.9,0,0,1,9.9-9.9h39.5a9.9,9.9,0,0,1,9.9,9.9v49.47A9.9,9.9,0,0,1,550.12,138.52Zm-1.39-9.71V79.23H512v49.58Z"/><path class="cls-1" d="M97.33,69.26v59.55H70.57v-10H59.29v9.84a10.1,10.1,0,0,0,9.87,9.84H98.74a9.22,9.22,0,0,0,7.05-3.53,9.86,9.86,0,0,0,2.82-6.36V69.26Z"/><path class="cls-1" d="M183.11,69.26v59.29H146.39V69.26H135.1v59.36a9.89,9.89,0,0,0,9.88,9.89h49.41V69.26Z"/><polygon class="cls-1" points="439.08 69.26 386.88 69.26 385.56 69.26 385.56 79.23 386.89 79.23 386.89 79.23 407.34 79.23 407.34 138.51 418.62 138.51 418.62 79.23 439.08 79.23 439.08 79.23 440.39 79.23 440.39 69.26 439.08 69.26"/><polygon class="cls-1" points="268.64 69.26 268.64 120.68 268.64 127.76 267.22 127.76 240.54 69 231.93 69 220.63 69 220.63 95.71 220.63 138.51 231.91 138.51 231.91 95.71 231.91 86.83 231.91 79.75 233.32 79.75 260.11 138.51 268.64 138.51 279.92 138.51 279.92 69.26 268.64 69.26"/><polygon class="cls-1" points="633.74 69.26 633.74 120.68 633.74 127.76 632.32 127.76 605.64 69 597.03 69 585.73 69 585.73 95.71 585.73 138.51 597.01 138.51 597.01 95.71 597.01 86.83 597.01 79.75 598.42 79.75 625.21 138.51 633.74 138.51 645.02 138.51 645.02 69.26 633.74 69.26"/></svg>