<?xml version="1.0" encoding="utf-8"?>
<!-- Generator: Adobe Illustrator 26.0.2, SVG Export Plug-In . SVG Version: 6.00 Build 0)  -->
<svg version="1.1" xmlns="http://www.w3.org/2000/svg" xmlns:xlink="http://www.w3.org/1999/xlink" x="0px" y="0px"
	 viewBox="0 0 1080 1080" style="enable-background:new 0 0 1080 1080;" xml:space="preserve">
<style type="text/css">
	.st0{fill:#FFFFFF;}
</style>
<g id="Layer_2">
</g>
<g id="Logo_White">
	<path class="st0" d="M850.7,500.3H813c-7.2,0.2-13.2-5.5-13.4-12.7c0-0.2,0-0.4,0-0.6v-23.6c0-4.5,2.5-8.3,5.7-10.8
		c2.3-1.5,4.9-2.4,7.7-2.5h23v-17.2h-34.5c-0.9,0.1-1.8-0.5-1.9-1.4c0-0.2,0-0.3,0-0.5v-13.4c0-0.6,0.6-1.3,1.9-1.3h37.6
		c7.2-0.2,13.2,5.5,13.4,12.7c0,0.2,0,0.4,0,0.6l0,0v21.7l0,0v1.3l0,0c-0.1,2-0.5,3.9-1.3,5.7c-2.2,4.7-7,7.6-12.1,7.6h-22.9v17.2
		h34.4c0.9-0.1,1.8,0.5,1.9,1.4c0,0.2,0,0.3,0,0.5v12.8C851.9,499.7,851.3,500.3,850.7,500.3z M803.5,465.2v21.7
		c0,5.7,4.5,9.6,9.6,10.2h35.7v-9.6h-34.4c-1,0-1.9-0.9-1.9-1.9l0,0v-20.4c-0.1-0.9,0.5-1.8,1.4-1.9c0.2,0,0.3,0,0.5,0h24.2
		c3.9,0,7.4-2.2,8.9-5.7c0.8-1.4,1.2-2.9,1.3-4.5l0,0v-23c0-5.7-4.5-9.6-9.6-10.2h-35.7v9.6h34.4c1,0,1.9,0.9,1.9,1.9l0,0v20.4
		c0.1,0.9-0.5,1.8-1.4,1.9c-0.2,0-0.3,0-0.5,0H813c-2.1,0-4.1,0.7-5.7,1.9c-2.7,1.9-4.3,5-4.5,8.3v1.3L803.5,465.2z"/>
	<path class="st0" d="M913.1,500.3h-27.4c-7.2,0.2-13.2-5.5-13.4-12.7c0-0.2,0-0.4,0-0.6v-57.4c-0.2-7.2,5.5-13.2,12.8-13.4
		c0.2,0,0.4,0,0.6,0h27.4c7.2-0.2,13.2,5.5,13.4,12.7c0,0.2,0,0.4,0,0.6v57.4C925.9,494.6,920.1,500.3,913.1,500.3z M885.1,420
		c-5.2-0.1-9.5,4-9.6,9.2c0,0.1,0,0.2,0,0.3l0,0v57.4c-0.1,5.2,4,9.5,9.2,9.6c0.1,0,0.2,0,0.3,0h27.4c5.2,0.1,9.5-4,9.6-9.2
		c0-0.1,0-0.2,0-0.4l0,0v-57.4c0.1-5.2-4-9.5-9.2-9.6c-0.1,0-0.2,0-0.3,0H885.1L885.1,420z"/>
	<path class="st0" d="M888.3,487.5c-1.7,0.1-3.1-1.1-3.2-2.8c0-0.1,0-0.3,0-0.4l0,0v-52.3l0,0c0.2-1,0.6-1.8,1.3-2.5
		c0.6-0.8,1.6-1.2,2.5-1.3h21c1.9,0,3.2,1.3,3.8,3.2l0,0v52.3l0,0c-0.2,1-0.6,1.8-1.3,2.5c-0.6,0.8-1.6,1.3-2.5,1.3L888.3,487.5z
		 M888.3,484.4h21v-52.3h-21V484.4z"/>
	<path class="st0" d="M996.6,500.3H959c-7.2,0.2-13.2-5.5-13.4-12.7c0-0.2,0-0.4,0-0.6v-23.6c-0.1-4.4,2.1-8.5,5.7-10.8
		c2.3-1.5,4.9-2.4,7.7-2.5h23v-17.2h-34.4c-1,0-1.9-0.9-1.9-1.9l0,0v-13.4c0-0.6,0.6-1.3,1.9-1.3h37.6c7.2-0.2,13.2,5.5,13.4,12.7
		c0,0.2,0,0.4,0,0.6l0,0v21.7l0,0v1.3l0,0c-0.1,2-0.5,3.9-1.3,5.7c-2.5,4.5-7,7.6-12.1,7.6h-22.3v17.9h34.4c0.9-0.1,1.8,0.5,1.9,1.4
		c0,0.2,0,0.3,0,0.5v12.8C998.7,499.4,997.8,500.1,996.6,500.3z M949.5,465.2v21.7c0,5.7,4.5,9.6,10.2,10.2h35.7v-9.6h-34.4
		c-0.9,0.1-1.8-0.5-1.9-1.4c0-0.2,0-0.3,0-0.5v-20.4c-0.1-0.9,0.5-1.8,1.4-1.9c0.2,0,0.3,0,0.5,0h24.2c3.9,0,7.4-2.2,8.9-5.7
		c0.8-1.4,1.2-2.9,1.3-4.5l0,0v-23c0-5.7-4.5-9.6-10.2-10.2h-35.7v9.6h34.4c1,0,1.9,0.9,1.9,1.9l0,0v20.4c0.1,0.9-0.5,1.8-1.4,1.9
		c-0.2,0-0.3,0-0.5,0h-24.2c-2.1,0-4.1,0.7-5.7,1.9c-2.7,1.9-4.3,5-4.5,8.3L949.5,465.2L949.5,465.2z"/>
	<path class="st0" d="M1068.3,500.3h-37.6c-7.2,0.2-13.2-5.5-13.4-12.7c0-0.2,0-0.4,0-0.6v-23.6c-0.1-4.4,2.1-8.5,5.7-10.8
		c2.3-1.5,4.9-2.4,7.6-2.5h23v-17.2h-34.4c-1,0-1.9-0.9-1.9-1.9l0,0v-13.4c0-0.6,0.6-1.3,1.9-1.3h37.6c7.2-0.2,13.2,5.5,13.4,12.7
		c0,0.2,0,0.4,0,0.6l0,0v21.7l0,0v1.3l0,0c-0.1,2-0.5,3.9-1.3,5.7c-2.6,4.5-7,7.6-12.1,7.6h-22.3v17.9h34.4c0.9-0.1,1.8,0.5,1.9,1.4
		c0,0.2,0,0.3,0,0.5v12.8C1070.4,499.4,1069.4,500.1,1068.3,500.3z M1021.1,465.2v21.7c0,5.7,4.5,9.6,10.2,10.2h35.7v-9.6h-34.4
		c-0.9,0.1-1.8-0.5-1.9-1.4c0-0.2,0-0.3,0-0.5v-20.4c-0.1-0.9,0.5-1.8,1.4-1.9c0.2,0,0.3,0,0.5,0h24.2c3.9,0,7.4-2.2,8.9-5.7
		c0.8-1.4,1.2-2.9,1.3-4.5l0,0v-23c0-5.7-4.5-9.6-10.2-10.2h-35.7v9.6h34.4c1,0,1.9,0.9,1.9,1.9l0,0v20.4c0.1,0.9-0.5,1.8-1.4,1.9
		c-0.2,0-0.3,0-0.5,0h-24.2c-2.1,0-4.1,0.7-5.7,1.9c-2.7,1.9-4.3,5-4.5,8.3L1021.1,465.2L1021.1,465.2z"/>
	<path class="st0" d="M412.1,488.5c0,6.7-5.4,12.1-12.1,12.1c0,0,0,0,0,0h-48.5c-6.7,0-12.1-5.4-12.1-12.1c0,0,0,0,0,0v-60.3
		c0-6.7,5.4-12.1,12.1-12.1c0,0,0,0,0,0H400c6.7,0,12.1,5.4,12.1,12.1c0,0,0,0,0,0v11.9h-13.7v-11.8h-44.8v60.5h44.8v-12.2h13.8
		L412.1,488.5z"/>
	<path class="st0" d="M546.7,500.6H533v-84.5h13.8L546.7,500.6z"/>
	<path class="st0" d="M638,500.6h-48.2c-6.7,0-12.1-5.4-12.1-12.1l0,0v-60.3c0-6.7,5.4-12.1,12.1-12.1l0,0H638
		c6.7,0,12.1,5.4,12.1,12.1l0,0l0,0v60.3C650.1,495.2,644.7,500.6,638,500.6C638,500.6,638,500.6,638,500.6z M636.3,488.8v-60.5
		h-44.8v60.5H636.3z"/>
	<path class="st0" d="M85.7,416.1v72.6H53v-12.2H39.3v12c0.2,6.6,5.4,11.8,12,12h36.1c3.4-0.1,6.5-1.7,8.6-4.3
		c2.1-2.1,3.3-4.8,3.4-7.8v-72.4H85.7z"/>
	<path class="st0" d="M190.3,416.1v72.3h-44.8v-72.3h-13.8v72.4c0,6.6,5.4,12,12,12.1H204v-84.5H190.3z"/>
	<polygon class="st0" points="502.6,416.1 438.9,416.1 437.3,416.1 437.3,428.3 438.9,428.3 438.9,428.3 463.8,428.3 463.8,500.6 
		477.6,500.6 477.6,428.3 502.6,428.3 502.6,428.3 504.1,428.3 504.1,416.1 	"/>
	<polygon class="st0" points="294.7,416.1 294.7,478.9 294.7,487.5 292.9,487.5 260.4,415.8 249.9,415.8 236.1,415.8 236.1,448.4 
		236.1,500.6 249.9,500.6 249.9,448.4 249.9,437.6 249.9,428.9 251.6,428.9 284.2,500.6 294.7,500.6 308.4,500.6 308.4,416.1 	"/>
	<polygon class="st0" points="740,416.1 740,478.9 740,487.5 738.3,487.5 705.7,415.8 695.2,415.8 681.4,415.8 681.4,448.4 
		681.4,500.6 695.2,500.6 695.2,448.4 695.2,437.6 695.2,428.9 696.9,428.9 729.6,500.6 740,500.6 753.8,500.6 753.8,416.1 	"/>
</g>
</svg>
